<mxfile host="app.diagrams.net" modified="2022-04-11T04:54:22.460Z" agent="5.0 (Windows NT 10.0; Win64; x64) AppleWebKit/537.36 (KHTML, like Gecko) Chrome/100.0.4896.75 Safari/537.36" etag="VtAgZOKDmQA1qXwmxUUq" version="17.4.2" type="github">
  <diagram id="vYiAxbowy0aPLJ-O-8xl" name="Page-1">
    <mxGraphModel dx="4913" dy="2269" grid="1" gridSize="10" guides="1" tooltips="1" connect="1" arrows="1" fold="1" page="1" pageScale="1" pageWidth="850" pageHeight="1100" math="0" shadow="0">
      <root>
        <mxCell id="0" />
        <mxCell id="1" parent="0" />
        <mxCell id="L30sIU54c05mjEJnndf--1" value="" style="shape=folder;fontStyle=1;spacingTop=10;tabWidth=280;tabHeight=30;tabPosition=left;html=1;" vertex="1" parent="1">
          <mxGeometry x="90" y="180" width="1440" height="1900" as="geometry" />
        </mxCell>
        <mxCell id="L30sIU54c05mjEJnndf--3" value="seng300.software" style="text;html=1;align=center;verticalAlign=middle;resizable=0;points=[];autosize=1;strokeColor=none;fillColor=none;fontSize=18;" vertex="1" parent="1">
          <mxGeometry x="90" y="180" width="160" height="30" as="geometry" />
        </mxCell>
        <mxCell id="L30sIU54c05mjEJnndf--6" value="" style="shape=folder;fontStyle=1;spacingTop=10;tabWidth=410;tabHeight=30;tabPosition=left;html=1;" vertex="1" parent="1">
          <mxGeometry x="-720" y="210" width="530" height="410" as="geometry" />
        </mxCell>
        <mxCell id="L30sIU54c05mjEJnndf--7" value="org.lsmr.selfcheckout.devices.observers" style="text;html=1;align=center;verticalAlign=middle;resizable=0;points=[];autosize=1;strokeColor=none;fillColor=none;fontSize=18;" vertex="1" parent="1">
          <mxGeometry x="-720" y="210" width="330" height="30" as="geometry" />
        </mxCell>
        <mxCell id="L30sIU54c05mjEJnndf--8" value="«interface»&lt;br&gt;&lt;b&gt;TouchScreenObserver&lt;/b&gt;" style="html=1;fontSize=18;" vertex="1" parent="1">
          <mxGeometry x="-700" y="270" width="210" height="60" as="geometry" />
        </mxCell>
        <mxCell id="L30sIU54c05mjEJnndf--9" value="«interface»&lt;br&gt;&lt;b&gt;BarcodeSannerObserver&lt;/b&gt;" style="html=1;fontSize=18;" vertex="1" parent="1">
          <mxGeometry x="-700" y="380" width="220" height="60" as="geometry" />
        </mxCell>
        <mxCell id="L30sIU54c05mjEJnndf--10" value="«interface»&lt;br&gt;&lt;b&gt;ElectronicScaleObserver&lt;/b&gt;" style="html=1;fontSize=18;" vertex="1" parent="1">
          <mxGeometry x="-700" y="490" width="220" height="60" as="geometry" />
        </mxCell>
        <mxCell id="L30sIU54c05mjEJnndf--19" value="Cart" style="swimlane;fontStyle=1;align=center;verticalAlign=top;childLayout=stackLayout;horizontal=1;startSize=26;horizontalStack=0;resizeParent=1;resizeParentMax=0;resizeLast=0;collapsible=1;marginBottom=0;fontSize=18;" vertex="1" parent="1">
          <mxGeometry x="350" y="1180" width="160" height="86" as="geometry" />
        </mxCell>
        <mxCell id="L30sIU54c05mjEJnndf--20" value="+ field: type" style="text;strokeColor=none;fillColor=none;align=left;verticalAlign=top;spacingLeft=4;spacingRight=4;overflow=hidden;rotatable=0;points=[[0,0.5],[1,0.5]];portConstraint=eastwest;fontSize=18;" vertex="1" parent="L30sIU54c05mjEJnndf--19">
          <mxGeometry y="26" width="160" height="26" as="geometry" />
        </mxCell>
        <mxCell id="L30sIU54c05mjEJnndf--21" value="" style="line;strokeWidth=1;fillColor=none;align=left;verticalAlign=middle;spacingTop=-1;spacingLeft=3;spacingRight=3;rotatable=0;labelPosition=right;points=[];portConstraint=eastwest;fontSize=18;" vertex="1" parent="L30sIU54c05mjEJnndf--19">
          <mxGeometry y="52" width="160" height="8" as="geometry" />
        </mxCell>
        <mxCell id="L30sIU54c05mjEJnndf--22" value="+ method(type): type" style="text;strokeColor=none;fillColor=none;align=left;verticalAlign=top;spacingLeft=4;spacingRight=4;overflow=hidden;rotatable=0;points=[[0,0.5],[1,0.5]];portConstraint=eastwest;fontSize=18;" vertex="1" parent="L30sIU54c05mjEJnndf--19">
          <mxGeometry y="60" width="160" height="26" as="geometry" />
        </mxCell>
        <mxCell id="L30sIU54c05mjEJnndf--35" value="SelfCheckoutSytemLogic" style="swimlane;fontStyle=1;align=center;verticalAlign=top;childLayout=stackLayout;horizontal=1;startSize=26;horizontalStack=0;resizeParent=1;resizeParentMax=0;resizeLast=0;collapsible=1;marginBottom=0;fontSize=18;" vertex="1" parent="1">
          <mxGeometry x="170" y="280" width="720" height="470" as="geometry" />
        </mxCell>
        <mxCell id="L30sIU54c05mjEJnndf--36" value="+ productDatabase: ProductDatabaseLogic&#xa;+ checkout: Checkout&#xa;- baggingAreaItems: ArrayList&lt;BarcodedItem&gt;&#xa;- baggingAreaPluItems: ArrayList&lt;PLUCodedItme&gt;" style="text;strokeColor=none;fillColor=none;align=left;verticalAlign=top;spacingLeft=4;spacingRight=4;overflow=hidden;rotatable=0;points=[[0,0.5],[1,0.5]];portConstraint=eastwest;fontSize=21;" vertex="1" parent="L30sIU54c05mjEJnndf--35">
          <mxGeometry y="26" width="720" height="114" as="geometry" />
        </mxCell>
        <mxCell id="L30sIU54c05mjEJnndf--37" value="" style="line;strokeWidth=1;fillColor=none;align=left;verticalAlign=middle;spacingTop=-1;spacingLeft=3;spacingRight=3;rotatable=0;labelPosition=right;points=[];portConstraint=eastwest;fontSize=18;" vertex="1" parent="L30sIU54c05mjEJnndf--35">
          <mxGeometry y="140" width="720" height="8" as="geometry" />
        </mxCell>
        <mxCell id="L30sIU54c05mjEJnndf--38" value="+ useOwnBags():void&#xa;+ isBlocked(): boolean&#xa;+ block(): void&#xa;+ unblock():void&#xa;+ checkBagging():void&#xa;+ productLookUp(String):List&lt;PLUCodeedProduct&gt;&#xa;+ getBaggingArea():ArrayList&lt;BarcodedItem&gt;&#xa;+ getBaggingAreaPlu():ArrayList&lt;PLUCodedItem&gt;&#xa;+ getBaggedProducts():ArrayLIst&lt;Product&gt;&#xa;" style="text;strokeColor=none;fillColor=none;align=left;verticalAlign=top;spacingLeft=4;spacingRight=4;overflow=hidden;rotatable=0;points=[[0,0.5],[1,0.5]];portConstraint=eastwest;fontSize=22;" vertex="1" parent="L30sIU54c05mjEJnndf--35">
          <mxGeometry y="148" width="720" height="322" as="geometry" />
        </mxCell>
        <mxCell id="L30sIU54c05mjEJnndf--39" value="" style="group" vertex="1" connectable="0" parent="1">
          <mxGeometry x="-20" y="2600" width="1080" height="780" as="geometry" />
        </mxCell>
        <mxCell id="L30sIU54c05mjEJnndf--4" value="" style="shape=folder;fontStyle=1;spacingTop=10;tabWidth=280;tabHeight=30;tabPosition=left;html=1;" vertex="1" parent="L30sIU54c05mjEJnndf--39">
          <mxGeometry width="1080" height="780" as="geometry" />
        </mxCell>
        <mxCell id="L30sIU54c05mjEJnndf--5" value="seng300.software.observers" style="text;html=1;align=center;verticalAlign=middle;resizable=0;points=[];autosize=1;strokeColor=none;fillColor=none;fontSize=18;" vertex="1" parent="L30sIU54c05mjEJnndf--39">
          <mxGeometry width="240" height="30" as="geometry" />
        </mxCell>
        <mxCell id="L30sIU54c05mjEJnndf--23" value="ScannerObserver" style="swimlane;fontStyle=1;align=center;verticalAlign=top;childLayout=stackLayout;horizontal=1;startSize=26;horizontalStack=0;resizeParent=1;resizeParentMax=0;resizeLast=0;collapsible=1;marginBottom=0;fontSize=18;" vertex="1" parent="L30sIU54c05mjEJnndf--39">
          <mxGeometry x="280" y="520" width="210" height="86" as="geometry" />
        </mxCell>
        <mxCell id="L30sIU54c05mjEJnndf--24" value="+ field: type" style="text;strokeColor=none;fillColor=none;align=left;verticalAlign=top;spacingLeft=4;spacingRight=4;overflow=hidden;rotatable=0;points=[[0,0.5],[1,0.5]];portConstraint=eastwest;fontSize=18;" vertex="1" parent="L30sIU54c05mjEJnndf--23">
          <mxGeometry y="26" width="210" height="26" as="geometry" />
        </mxCell>
        <mxCell id="L30sIU54c05mjEJnndf--25" value="" style="line;strokeWidth=1;fillColor=none;align=left;verticalAlign=middle;spacingTop=-1;spacingLeft=3;spacingRight=3;rotatable=0;labelPosition=right;points=[];portConstraint=eastwest;fontSize=18;" vertex="1" parent="L30sIU54c05mjEJnndf--23">
          <mxGeometry y="52" width="210" height="8" as="geometry" />
        </mxCell>
        <mxCell id="L30sIU54c05mjEJnndf--26" value="+ method(type): type" style="text;strokeColor=none;fillColor=none;align=left;verticalAlign=top;spacingLeft=4;spacingRight=4;overflow=hidden;rotatable=0;points=[[0,0.5],[1,0.5]];portConstraint=eastwest;fontSize=18;" vertex="1" parent="L30sIU54c05mjEJnndf--23">
          <mxGeometry y="60" width="210" height="26" as="geometry" />
        </mxCell>
        <mxCell id="L30sIU54c05mjEJnndf--27" value="CartObserver" style="swimlane;fontStyle=1;align=center;verticalAlign=top;childLayout=stackLayout;horizontal=1;startSize=26;horizontalStack=0;resizeParent=1;resizeParentMax=0;resizeLast=0;collapsible=1;marginBottom=0;fontSize=18;" vertex="1" parent="L30sIU54c05mjEJnndf--39">
          <mxGeometry x="170" y="100" width="260" height="86" as="geometry" />
        </mxCell>
        <mxCell id="L30sIU54c05mjEJnndf--28" value="+ field: type" style="text;strokeColor=none;fillColor=none;align=left;verticalAlign=top;spacingLeft=4;spacingRight=4;overflow=hidden;rotatable=0;points=[[0,0.5],[1,0.5]];portConstraint=eastwest;fontSize=18;" vertex="1" parent="L30sIU54c05mjEJnndf--27">
          <mxGeometry y="26" width="260" height="26" as="geometry" />
        </mxCell>
        <mxCell id="L30sIU54c05mjEJnndf--29" value="" style="line;strokeWidth=1;fillColor=none;align=left;verticalAlign=middle;spacingTop=-1;spacingLeft=3;spacingRight=3;rotatable=0;labelPosition=right;points=[];portConstraint=eastwest;fontSize=18;" vertex="1" parent="L30sIU54c05mjEJnndf--27">
          <mxGeometry y="52" width="260" height="8" as="geometry" />
        </mxCell>
        <mxCell id="L30sIU54c05mjEJnndf--30" value="+ method(type): type" style="text;strokeColor=none;fillColor=none;align=left;verticalAlign=top;spacingLeft=4;spacingRight=4;overflow=hidden;rotatable=0;points=[[0,0.5],[1,0.5]];portConstraint=eastwest;fontSize=18;" vertex="1" parent="L30sIU54c05mjEJnndf--27">
          <mxGeometry y="60" width="260" height="26" as="geometry" />
        </mxCell>
        <mxCell id="L30sIU54c05mjEJnndf--31" value="BaggingAreaObserver" style="swimlane;fontStyle=1;align=center;verticalAlign=top;childLayout=stackLayout;horizontal=1;startSize=26;horizontalStack=0;resizeParent=1;resizeParentMax=0;resizeLast=0;collapsible=1;marginBottom=0;fontSize=18;" vertex="1" parent="L30sIU54c05mjEJnndf--39">
          <mxGeometry x="140" y="300" width="270" height="86" as="geometry" />
        </mxCell>
        <mxCell id="L30sIU54c05mjEJnndf--32" value="+ field: type" style="text;strokeColor=none;fillColor=none;align=left;verticalAlign=top;spacingLeft=4;spacingRight=4;overflow=hidden;rotatable=0;points=[[0,0.5],[1,0.5]];portConstraint=eastwest;fontSize=18;" vertex="1" parent="L30sIU54c05mjEJnndf--31">
          <mxGeometry y="26" width="270" height="26" as="geometry" />
        </mxCell>
        <mxCell id="L30sIU54c05mjEJnndf--33" value="" style="line;strokeWidth=1;fillColor=none;align=left;verticalAlign=middle;spacingTop=-1;spacingLeft=3;spacingRight=3;rotatable=0;labelPosition=right;points=[];portConstraint=eastwest;fontSize=18;" vertex="1" parent="L30sIU54c05mjEJnndf--31">
          <mxGeometry y="52" width="270" height="8" as="geometry" />
        </mxCell>
        <mxCell id="L30sIU54c05mjEJnndf--34" value="+ method(type): type" style="text;strokeColor=none;fillColor=none;align=left;verticalAlign=top;spacingLeft=4;spacingRight=4;overflow=hidden;rotatable=0;points=[[0,0.5],[1,0.5]];portConstraint=eastwest;fontSize=18;" vertex="1" parent="L30sIU54c05mjEJnndf--31">
          <mxGeometry y="60" width="270" height="26" as="geometry" />
        </mxCell>
        <mxCell id="L30sIU54c05mjEJnndf--40" value="AttendantLogic" style="swimlane;fontStyle=1;align=center;verticalAlign=top;childLayout=stackLayout;horizontal=1;startSize=26;horizontalStack=0;resizeParent=1;resizeParentMax=0;resizeLast=0;collapsible=1;marginBottom=0;fontSize=18;" vertex="1" parent="1">
          <mxGeometry x="170" y="780" width="980" height="280" as="geometry" />
        </mxCell>
        <mxCell id="L30sIU54c05mjEJnndf--41" value="+ ss:SupervisionStation&#xa;" style="text;strokeColor=none;fillColor=none;align=left;verticalAlign=top;spacingLeft=4;spacingRight=4;overflow=hidden;rotatable=0;points=[[0,0.5],[1,0.5]];portConstraint=eastwest;fontSize=21;fontStyle=4;whiteSpace=wrap;" vertex="1" parent="L30sIU54c05mjEJnndf--40">
          <mxGeometry y="26" width="980" height="74" as="geometry" />
        </mxCell>
        <mxCell id="L30sIU54c05mjEJnndf--42" value="" style="line;strokeWidth=1;fillColor=none;align=left;verticalAlign=middle;spacingTop=-1;spacingLeft=3;spacingRight=3;rotatable=0;labelPosition=right;points=[];portConstraint=eastwest;fontSize=18;" vertex="1" parent="L30sIU54c05mjEJnndf--40">
          <mxGeometry y="100" width="980" height="8" as="geometry" />
        </mxCell>
        <mxCell id="L30sIU54c05mjEJnndf--43" value="+ keyPressed(Keyboard,char):void&#xa;+ AttendantRemovePurchasedItem(BarcodedProduct, SelfCheckoutStationLogic):void&#xa;+ AttendantRemovePurchasedItem(PLUCodedWeightProduct, SelfCheckoutStationLogic):void&#xa;+ attendantProductLookUp(String):List&lt;PLUCodeProduct" style="text;strokeColor=none;fillColor=none;align=left;verticalAlign=top;spacingLeft=4;spacingRight=4;overflow=hidden;rotatable=0;points=[[0,0.5],[1,0.5]];portConstraint=eastwest;fontSize=22;" vertex="1" parent="L30sIU54c05mjEJnndf--40">
          <mxGeometry y="108" width="980" height="172" as="geometry" />
        </mxCell>
      </root>
    </mxGraphModel>
  </diagram>
</mxfile>
